<svg width="720" height="540" viewBox="0 0 720 540" fill="none" xmlns="http://www.w3.org/2000/svg">
  <defs>
    <linearGradient id="bg" x1="0" y1="0" x2="1" y2="1">
      <stop offset="0" stop-color="#111827"/>
      <stop offset="1" stop-color="#312e81"/>
    </linearGradient>
    <linearGradient id="wave" x1="0" y1="0" x2="1" y2="1">
      <stop offset="0" stop-color="#f472b6"/>
      <stop offset="1" stop-color="#8b5cf6"/>
    </linearGradient>
    <filter id="blur" x="-20%" y="-20%" width="140%" height="140%">
      <feGaussianBlur stdDeviation="22" />
    </filter>
  </defs>
  <rect width="720" height="540" rx="48" fill="url(#bg)"/>
  <path d="M0 380C120 320 240 420 360 360C480 300 600 340 720 280V540H0V380Z" fill="url(#wave)" opacity="0.35"/>
  <circle cx="540" cy="140" r="120" fill="#38bdf8" opacity="0.45" filter="url(#blur)"/>
  <circle cx="180" cy="220" r="100" fill="#fbbf24" opacity="0.25" filter="url(#blur)"/>
  <g stroke="white" stroke-opacity="0.2" stroke-width="2">
    <rect x="120" y="140" width="200" height="120" rx="18"/>
    <rect x="380" y="220" width="220" height="140" rx="20"/>
  </g>
  <g fill="white" opacity="0.75">
    <rect x="140" y="160" width="80" height="10" rx="5"/>
    <rect x="140" y="180" width="120" height="8" rx="4"/>
    <rect x="400" y="240" width="110" height="10" rx="5"/>
    <rect x="400" y="260" width="160" height="8" rx="4"/>
  </g>
</svg>
