<svg width="720" height="540" viewBox="0 0 720 540" fill="none" xmlns="http://www.w3.org/2000/svg">
  <defs>
    <linearGradient id="bg" x1="0" y1="0" x2="1" y2="1">
      <stop offset="0" stop-color="#0f172a"/>
      <stop offset="1" stop-color="#1f2937"/>
    </linearGradient>
    <linearGradient id="accent" x1="0" y1="0" x2="1" y2="1">
      <stop offset="0" stop-color="#22c55e"/>
      <stop offset="1" stop-color="#06b6d4"/>
    </linearGradient>
    <filter id="blur" x="-20%" y="-20%" width="140%" height="140%">
      <feGaussianBlur stdDeviation="26" />
    </filter>
  </defs>
  <rect width="720" height="540" rx="48" fill="url(#bg)"/>
  <rect x="60" y="80" width="600" height="380" rx="40" fill="white" fill-opacity="0.05"/>
  <circle cx="200" cy="140" r="120" fill="url(#accent)" opacity="0.5" filter="url(#blur)"/>
  <circle cx="520" cy="360" r="140" fill="#818cf8" opacity="0.35" filter="url(#blur)"/>
  <path d="M120 320C200 260 280 280 360 240C440 200 520 220 600 180" stroke="white" stroke-opacity="0.2" stroke-width="4"/>
  <path d="M120 360C220 300 300 320 380 280C460 240 540 260 620 220" stroke="white" stroke-opacity="0.12" stroke-width="3"/>
  <g fill="white" opacity="0.7">
    <circle cx="240" cy="260" r="8"/>
    <circle cx="360" cy="240" r="6"/>
    <circle cx="520" cy="200" r="5"/>
  </g>
  <rect x="120" y="400" width="240" height="70" rx="18" fill="url(#accent)" opacity="0.2"/>
</svg>
