<svg width="720" height="540" viewBox="0 0 720 540" fill="none" xmlns="http://www.w3.org/2000/svg">
  <defs>
    <linearGradient id="bg" x1="0" y1="0" x2="1" y2="1">
      <stop offset="0" stop-color="#0f172a"/>
      <stop offset="1" stop-color="#0b4c3f"/>
    </linearGradient>
    <linearGradient id="glow" x1="0" y1="0" x2="1" y2="1">
      <stop offset="0" stop-color="#22d3ee"/>
      <stop offset="1" stop-color="#34d399"/>
    </linearGradient>
    <filter id="blur" x="-20%" y="-20%" width="140%" height="140%">
      <feGaussianBlur stdDeviation="24" />
    </filter>
  </defs>
  <rect width="720" height="540" rx="48" fill="url(#bg)"/>
  <circle cx="160" cy="120" r="140" fill="url(#glow)" filter="url(#blur)" opacity="0.6"/>
  <circle cx="560" cy="380" r="160" fill="#60a5fa" filter="url(#blur)" opacity="0.4"/>
  <path d="M120 400C220 320 320 360 420 280C520 200 600 220 680 160" stroke="white" stroke-opacity="0.2" stroke-width="6"/>
  <path d="M80 360C200 280 300 320 420 240C520 160 610 180 700 120" stroke="white" stroke-opacity="0.15" stroke-width="4"/>
  <g fill="white" opacity="0.85">
    <circle cx="220" cy="300" r="10"/>
    <circle cx="420" cy="240" r="8"/>
    <circle cx="520" cy="200" r="6"/>
  </g>
  <rect x="80" y="420" width="220" height="80" rx="20" fill="white" fill-opacity="0.12"/>
  <rect x="110" y="440" width="120" height="12" rx="6" fill="white" fill-opacity="0.45"/>
  <rect x="110" y="464" width="160" height="10" rx="5" fill="white" fill-opacity="0.25"/>
</svg>
